# xmcd
#
# Track frame offsets:
#	150
#	32415
#	78787
#	123047
#	172122
#	222815
#	259287
#	307687
#	334012
#
# Disc length: 4702 seconds
#
# Revision: 13
# Processed by: cddbd v1.5.2PL0 Copyright (c) Steve Scherf et al.
# Submitted via: EasyCDDAExtractor 15.3.0.1
#
DISCID=69125c09
DTITLE=Mariah Carey - The Remixes - CD 1
DYEAR=2003
DGENRE=R&B/Pop
TTITLE0=My All (Morales ''My'' Club Mix)
TTITLE1=Heartbreaker, If You Should Ever Be Lonely (Junior's Heartbreaker Club
TTITLE1=Mix)
TTITLE2=Fly Away (Butterfly Reprise) (Fly Away Club Mix)
TTITLE3=Anytime You Need A Friend (C&C Club Version)
TTITLE4=Fantasy (Def Club Mix)
TTITLE5=Honey (Classic Mix)
TTITLE6=Dreamlover (Def Club Mix)
TTITLE7=Emotions (12'' Club Mix)
TTITLE8=Through The Rain (HQ2 Radio Edit)
EXTD=YEAR: 2003
EXTT0=
EXTT1=
EXTT2=
EXTT3=
EXTT4=
EXTT5=
EXTT6=
EXTT7=
EXTT8=
PLAYORDER=
